<svg xmlns="http://www.w3.org/2000/svg" viewBox="0 0 239 239"><defs><style>.cls-1{fill:#f15d63;}.cls-2{fill:none;stroke:#fff;stroke-miterlimit:10;stroke-width:3px;}.cls-3,.cls-4{fill:#fff;}.cls-4{fill-rule:evenodd;}</style></defs><title>Artboard 1</title><g id="Layer_1_copy" data-name="Layer 1 copy"><circle class="cls-1" cx="119.5" cy="119.5" r="119.5"/><circle class="cls-2" cx="119.5" cy="119.5" r="113"/><path class="cls-3" d="M62.84,65.21V63.5a5.22,5.22,0,0,1,1-3.52L79.55,42.44a.81.81,0,0,1,.57-.3c.46,0,.81.91.81,2.62v1.41c0,1.71-.31,2.92-.92,3.53L66.37,64.31,80,79a5.24,5.24,0,0,1,.92,3.52V84c0,1.72-.35,2.62-.81,2.62a.81.81,0,0,1-.57-.3L63.8,68.74A5.23,5.23,0,0,1,62.84,65.21Z"/><path class="cls-3" d="M158,82.64a5.18,5.18,0,0,1,.92-3.52L172.6,64.41,159,49.8c-.62-.61-.92-1.81-.92-3.53V44.86c0-1.71.34-2.62.8-2.62a.83.83,0,0,1,.58.3l15.75,17.54a5.22,5.22,0,0,1,1,3.52v1.71a5.23,5.23,0,0,1-1,3.53L159.42,86.37a.83.83,0,0,1-.58.3c-.46,0-.8-.9-.8-2.61Z"/><path class="cls-3" d="M42.88,174a12.53,12.53,0,0,1,.6-3.9,10.06,10.06,0,0,1,1.77-3.26,8.45,8.45,0,0,1,2.85-2.22,8.7,8.7,0,0,1,3.87-.83,9.22,9.22,0,0,1,2.84.44,7.75,7.75,0,0,1,2.42,1.26,7.58,7.58,0,0,1,1.79,2,7.2,7.2,0,0,1,1,2.7H58.86a7.39,7.39,0,0,0-2.43-4A6.81,6.81,0,0,0,52,164.85a7.53,7.53,0,0,0-3.43.75,7.34,7.34,0,0,0-2.48,2,8.86,8.86,0,0,0-1.51,2.93,11.44,11.44,0,0,0-.52,3.47,11.93,11.93,0,0,0,.5,3.47,8.41,8.41,0,0,0,1.49,2.85,7.06,7.06,0,0,0,2.47,1.93A7.89,7.89,0,0,0,52,183a8.28,8.28,0,0,0,3.11-.56,6.6,6.6,0,0,0,2.33-1.6,6.68,6.68,0,0,0,1.45-2.47,8.74,8.74,0,0,0,.4-3.22h-7.1v-1h8.13v9.45h-1v-4.1h0a6,6,0,0,1-1.06,1.9,6.35,6.35,0,0,1-1.66,1.43,8.13,8.13,0,0,1-2.13.9A9,9,0,0,1,52,184a9.17,9.17,0,0,1-3.88-.78,8.56,8.56,0,0,1-2.85-2.14,9.06,9.06,0,0,1-1.75-3.17A12.35,12.35,0,0,1,42.88,174Z"/><path class="cls-3" d="M63.64,167.06v-2.78h1v2.78Zm0,16.5V169.68h1v13.88Z"/><path class="cls-3" d="M69,172.76H69a3.24,3.24,0,0,1,.69-1.27,4.65,4.65,0,0,1,1.21-1,6.28,6.28,0,0,1,1.59-.67,6.55,6.55,0,0,1,1.83-.2v1a4.89,4.89,0,0,0-1.85.16,4.49,4.49,0,0,0-2,1.19q-.37.41-.66.78a3.43,3.43,0,0,0-.47.84,4.88,4.88,0,0,0-.3,1A8.35,8.35,0,0,0,69,176v7.59h-1V169.68h1Z"/><path class="cls-3" d="M76.71,164.28v19.28h-1V164.28Z"/><path class="cls-3" d="M87.67,164.28H94a10.06,10.06,0,0,1,4.3.81,7.17,7.17,0,0,1,2.74,2.16,8.18,8.18,0,0,1,1.45,3.08,15,15,0,0,1,.42,3.56,13.31,13.31,0,0,1-.53,3.82,8.38,8.38,0,0,1-1.63,3.07,7.78,7.78,0,0,1-2.8,2,10,10,0,0,1-4,.74H87.67ZM94,182.53a9.48,9.48,0,0,0,2.71-.41,6.51,6.51,0,0,0,2.47-1.41,7.09,7.09,0,0,0,1.8-2.64,11,11,0,0,0,.69-4.18,12.74,12.74,0,0,0-.39-3.37,8.31,8.31,0,0,0-1-2.36,5.32,5.32,0,0,0-1.46-1.52,7.51,7.51,0,0,0-1.7-.85,9.17,9.17,0,0,0-1.75-.39c-.59-.06-1.12-.09-1.58-.09H88.86v17.22Z"/><path class="cls-3" d="M105.87,176.76v.16a8.08,8.08,0,0,0,.32,2.32,6,6,0,0,0,1,1.94,4.7,4.7,0,0,0,1.6,1.33A4.92,4.92,0,0,0,111,183a4.79,4.79,0,0,0,3.31-1.09,5.68,5.68,0,0,0,1.67-3h1a6.25,6.25,0,0,1-2,3.73,6,6,0,0,1-4,1.29,6.12,6.12,0,0,1-2.69-.55,5.45,5.45,0,0,1-1.91-1.51,6.32,6.32,0,0,1-1.15-2.27,10.17,10.17,0,0,1-.38-2.82,9.9,9.9,0,0,1,.39-2.79,6.75,6.75,0,0,1,1.18-2.35,5.69,5.69,0,0,1,2-1.62,6.52,6.52,0,0,1,5.35-.07,5.45,5.45,0,0,1,1.88,1.47,6.56,6.56,0,0,1,1.14,2.16,8.67,8.67,0,0,1,.39,2.63c0,.09,0,.2,0,.31s0,.22,0,.29Zm10.2-.89a7.87,7.87,0,0,0-.38-2.15,5,5,0,0,0-1-1.78,4.61,4.61,0,0,0-1.54-1.23,4.5,4.5,0,0,0-2.07-.46,4.76,4.76,0,0,0-3.79,1.71,5.46,5.46,0,0,0-1,1.8,8.43,8.43,0,0,0-.44,2.11Z"/><path class="cls-3" d="M124.79,183.56h-1.27l-5.59-13.88h1.19l5,12.69h.06l4.7-12.69H130Z"/><path class="cls-3" d="M131.87,176.76v.16a8.08,8.08,0,0,0,.32,2.32,6,6,0,0,0,1,1.94,4.7,4.7,0,0,0,1.6,1.33A4.92,4.92,0,0,0,137,183a4.79,4.79,0,0,0,3.31-1.09,5.68,5.68,0,0,0,1.67-3h1a6.29,6.29,0,0,1-2,3.73,6.93,6.93,0,0,1-6.73.74,5.45,5.45,0,0,1-1.91-1.51,6.32,6.32,0,0,1-1.15-2.27,10.17,10.17,0,0,1-.38-2.82,9.9,9.9,0,0,1,.39-2.79,6.75,6.75,0,0,1,1.18-2.35,5.69,5.69,0,0,1,2-1.62,6.52,6.52,0,0,1,5.35-.07,5.45,5.45,0,0,1,1.88,1.47,6.56,6.56,0,0,1,1.14,2.16,8.67,8.67,0,0,1,.4,2.63c0,.09,0,.2,0,.31s0,.22,0,.29Zm10.2-.89a7.87,7.87,0,0,0-.38-2.15,5,5,0,0,0-1-1.78,4.61,4.61,0,0,0-1.54-1.23,4.5,4.5,0,0,0-2.07-.46,4.8,4.8,0,0,0-3.79,1.71,5.46,5.46,0,0,0-1,1.8,8.43,8.43,0,0,0-.44,2.11Z"/><path class="cls-3" d="M146.77,164.28v19.28h-1V164.28Z"/><path class="cls-3" d="M149.39,176.62a9.05,9.05,0,0,1,.42-2.79,6.92,6.92,0,0,1,1.23-2.31,5.81,5.81,0,0,1,2-1.58,6.71,6.71,0,0,1,5.46,0,5.85,5.85,0,0,1,2,1.58,6.72,6.72,0,0,1,1.22,2.31,9.05,9.05,0,0,1,.42,2.79,9.23,9.23,0,0,1-.42,2.81,6.72,6.72,0,0,1-1.22,2.31,5.92,5.92,0,0,1-2,1.56,6.71,6.71,0,0,1-5.46,0,5.88,5.88,0,0,1-2-1.56,6.92,6.92,0,0,1-1.23-2.31A9.23,9.23,0,0,1,149.39,176.62Zm1,0a7.9,7.9,0,0,0,.35,2.39,6.3,6.3,0,0,0,1,2,5,5,0,0,0,1.68,1.42,5.32,5.32,0,0,0,4.59,0,5.08,5.08,0,0,0,1.67-1.42,6.53,6.53,0,0,0,1-2,8.34,8.34,0,0,0,0-4.78,6.75,6.75,0,0,0-1-2,5.05,5.05,0,0,0-1.67-1.41,5.23,5.23,0,0,0-4.59,0,5,5,0,0,0-1.68,1.41,6.51,6.51,0,0,0-1,2A8,8,0,0,0,150.42,176.62Z"/><path class="cls-3" d="M165.78,172.87h.08a5.73,5.73,0,0,1,.54-1.14,4.61,4.61,0,0,1,1-1.14,5.21,5.21,0,0,1,1.5-.88,5.42,5.42,0,0,1,2-.35,6.1,6.1,0,0,1,2.76.59,5.56,5.56,0,0,1,2,1.6,7,7,0,0,1,1.15,2.32,10.14,10.14,0,0,1,.37,2.78,10.63,10.63,0,0,1-.37,2.91,6.58,6.58,0,0,1-1.15,2.29,5.46,5.46,0,0,1-2,1.49,6.63,6.63,0,0,1-2.78.54,6.24,6.24,0,0,1-3.08-.75,4.46,4.46,0,0,1-2-2.46h-.05v7.86h-1V169.68h1ZM170.89,183a5.06,5.06,0,0,0,2.35-.51,4.61,4.61,0,0,0,1.62-1.38,6,6,0,0,0,.95-2,9.59,9.59,0,0,0,.31-2.44,9.27,9.27,0,0,0-.3-2.34,6.37,6.37,0,0,0-.92-2.05,4.72,4.72,0,0,0-1.61-1.46,4.84,4.84,0,0,0-2.4-.55,4.77,4.77,0,0,0-2.35.54,4.54,4.54,0,0,0-1.58,1.43,5.87,5.87,0,0,0-.88,2,9.84,9.84,0,0,0-.28,2.39,11.67,11.67,0,0,0,.25,2.39,5.88,5.88,0,0,0,.82,2,4.28,4.28,0,0,0,1.57,1.41A5.19,5.19,0,0,0,170.89,183Z"/><path class="cls-3" d="M187.24,164.28h1.19v19.28h-1.19Z"/><path class="cls-3" d="M196.75,170.57h-3v9.7a3.89,3.89,0,0,0,.19,1.32,1.55,1.55,0,0,0,.58.74,2,2,0,0,0,.95.31,8.67,8.67,0,0,0,1.28,0v.89a9.75,9.75,0,0,1-1.53,0,3.11,3.11,0,0,1-1.31-.41,2.41,2.41,0,0,1-.9-1,3.72,3.72,0,0,1-.28-1.86v-9.7h-2.57v-.89h2.57v-4.32h1v4.32h3Z"/><path class="cls-3" d="M81.8,148.31c-.33.34-.74.73-1.25,1.17s-1.08.88-1.71,1.33-1.32.88-2,1.3a23.55,23.55,0,0,1-2.25,1.12,16.17,16.17,0,0,1-2.31.79,9.44,9.44,0,0,1-2.24.29,4.75,4.75,0,0,1-1.51-.26,3.22,3.22,0,0,1-1.38-1,5.05,5.05,0,0,1-1-1.91,10.21,10.21,0,0,1-.4-3.16,16.14,16.14,0,0,1,.11-1.77c.08-.63.18-1.32.31-2a24.71,24.71,0,0,1-3,4.67,19,19,0,0,1-3.51,3.4,14.68,14.68,0,0,1-3.86,2.08,11.8,11.8,0,0,1-4,.7,11.31,11.31,0,0,1-4.14-.76A9.89,9.89,0,0,1,44.19,152a10.71,10.71,0,0,1-2.38-3.76,14.3,14.3,0,0,1-.88-5.25,22.92,22.92,0,0,1,.52-4.75,32,32,0,0,1,1.54-5,38,38,0,0,1,2.44-5,35.09,35.09,0,0,1,3.26-4.72,35.54,35.54,0,0,1,4-4.15,27.91,27.91,0,0,1,4.63-3.3,24.34,24.34,0,0,1,5.18-2.19,20,20,0,0,1,5.65-.8,4.94,4.94,0,0,1,1.28.13,1.73,1.73,0,0,1,.72.33.91.91,0,0,1,.32.41,1.09,1.09,0,0,1,.07.37c0,.08,0,.15,0,.21a.88.88,0,0,0,0,.14v.12a3.42,3.42,0,0,0,1.28.46l1.29.14a5.67,5.67,0,0,1,1.2.24,2.16,2.16,0,0,1,1,.74,4.26,4.26,0,0,1,.67,1.61,12.68,12.68,0,0,1,.25,2.86,21,21,0,0,1-.27,3.16c-.18,1.17-.42,2.4-.72,3.68s-.63,2.58-1,3.89-.74,2.59-1.1,3.82-.73,2.4-1.07,3.49-.63,2-.87,2.86c0,.69-.08,1.33-.12,1.93s0,1.21,0,1.85,0,.91,0,1.23a3.8,3.8,0,0,0,.13.76.69.69,0,0,0,.26.39.77.77,0,0,0,.42.1,3.84,3.84,0,0,0,1.18-.24,15.3,15.3,0,0,0,1.53-.64c.54-.25,1.1-.54,1.69-.86s1.14-.64,1.68-1,1-.61,1.52-.87.85-.49,1.17-.66ZM70.72,118a10.66,10.66,0,0,0-1.7-.34,14.52,14.52,0,0,0-1.7-.11,10,10,0,0,0-3.75.73,16,16,0,0,0-3.6,2,22.73,22.73,0,0,0-3.33,3,33.23,33.23,0,0,0-3,3.66,35.17,35.17,0,0,0-2.47,4.06,38,38,0,0,0-1.9,4.21,27.93,27.93,0,0,0-1.22,4.08,17.62,17.62,0,0,0-.42,3.64A8.57,8.57,0,0,0,49,148a4.76,4.76,0,0,0,4.11,1.82,7.64,7.64,0,0,0,3.3-.73,11.78,11.78,0,0,0,2.89-1.91,17.86,17.86,0,0,0,2.45-2.67,25.64,25.64,0,0,0,2-3,25.33,25.33,0,0,0,1.37-2.94,17.84,17.84,0,0,0,.77-2.45Z"/><path class="cls-3" d="M99.16,148.31c-1.5.88-2.84,1.64-4,2.3s-2.22,1.2-3.13,1.64a17.7,17.7,0,0,1-2.44,1,6.57,6.57,0,0,1-1.93.33,4.91,4.91,0,0,1-3.14-1.08,8,8,0,0,1-2.27-3.1,19.69,19.69,0,0,1-1.38-4.91,42.51,42.51,0,0,1-.45-6.5c0-.93,0-1.93.11-3s.19-2.11.33-3.16c-.47-.06-.83-.12-1.09-.18l-.82-.16-1.1-.18c-.44-.06-1.09-.14-1.93-.23a2.12,2.12,0,0,1-.87-.27,1.34,1.34,0,0,1-.45-.47,1.63,1.63,0,0,1-.16-.56c0-.2,0-.36,0-.5a.77.77,0,0,1,.45-.72,4,4,0,0,1,1.18-.36,10.6,10.6,0,0,1,1.57-.13c.57,0,1.11,0,1.64,0l1.4,0a5.59,5.59,0,0,0,.86,0,54.49,54.49,0,0,1,1.6-6.13,35.32,35.32,0,0,1,2.18-5.27A14.8,14.8,0,0,1,87.93,113a4.26,4.26,0,0,1,3-1.39,3.24,3.24,0,0,1,1.84.56,5.11,5.11,0,0,1,1.42,1.5,7.74,7.74,0,0,1,.9,2.19,10.74,10.74,0,0,1,.32,2.62,9.69,9.69,0,0,1-.33,2.42,19.06,19.06,0,0,1-.89,2.6,27.89,27.89,0,0,1-1.33,2.69c-.5.9-1,1.8-1.6,2.69.14,0,.37,0,.7,0l1.14,0,1.39.06L96,129l1.31,0,1,0a.77.77,0,0,1,.68.47,2.68,2.68,0,0,1,.21,1.13,1.89,1.89,0,0,1-.47,1.33,1.37,1.37,0,0,1-1,.52h-9c-.46.63-.91,1.24-1.37,1.84S86.4,135.54,86,136c-.06,1-.12,1.92-.17,2.86,0,.4,0,.82,0,1.25s0,.86,0,1.28,0,.83,0,1.22,0,.75,0,1.08a8.12,8.12,0,0,0,.24,2.13,3.69,3.69,0,0,0,.68,1.42,2.58,2.58,0,0,0,1.09.79,3.89,3.89,0,0,0,1.44.25,4.39,4.39,0,0,0,1.23-.23,15.62,15.62,0,0,0,1.62-.65c.58-.27,1.2-.6,1.85-1s1.29-.79,1.92-1.23,1.24-.92,1.82-1.41a17.4,17.4,0,0,0,1.57-1.51Zm-7.5-29.67a4.14,4.14,0,0,0,0-.58,1.9,1.9,0,0,0-.15-.59,1,1,0,0,0-1.06-.66q-.6,0-1.23,1.08A16,16,0,0,0,88,120.64q-.57,1.68-1.08,3.69c-.33,1.35-.64,2.65-.92,3.92l.7.08.73.08c.46-.8,1-1.66,1.46-2.59s1-1.84,1.37-2.74.74-1.74,1-2.52A6.43,6.43,0,0,0,91.66,118.64Z"/><path class="cls-3" d="M104.14,153.56a3.27,3.27,0,0,1-2.36-1.11,10,10,0,0,1-1.9-3,20,20,0,0,1-1.26-4.35,28.07,28.07,0,0,1-.46-5.19,35.83,35.83,0,0,1,.31-4.54c.2-1.63.5-3.31.89-5s.85-3.47,1.39-5.22a53.45,53.45,0,0,1,1.83-5,43,43,0,0,1,2.21-4.51,25.12,25.12,0,0,1,2.51-3.66,11.83,11.83,0,0,1,2.74-2.45,5.51,5.51,0,0,1,2.91-.89,2.78,2.78,0,0,1,1.66.46,3.11,3.11,0,0,1,1,1.2,5.83,5.83,0,0,1,.52,1.7,12.48,12.48,0,0,1,.15,1.94,20.59,20.59,0,0,1-.5,4.49,35.59,35.59,0,0,1-1.36,4.59q-.85,2.31-2,4.63c-.75,1.54-1.53,3.08-2.34,4.6s-1.63,3-2.45,4.5-1.59,2.92-2.31,4.33a5,5,0,0,0-.25.61q-.12.38-.24.81c-.08.28-.16.59-.24.92a8.93,8.93,0,0,0-.18,1v.33a5.69,5.69,0,0,0,.12,1.18,7.55,7.55,0,0,0,.32,1,3.36,3.36,0,0,0,.4.72c.14.18.27.27.4.27a3.27,3.27,0,0,0,1-.19,9,9,0,0,0,1.22-.5,14.7,14.7,0,0,0,1.32-.73c.45-.27.89-.55,1.31-.83,1-.65,2-1.41,3.1-2.27l1.92,4.92a47.86,47.86,0,0,1-4.13,2.67c-.59.33-1.2.65-1.84,1s-1.27.61-1.91.86a15,15,0,0,1-1.87.6A7.16,7.16,0,0,1,104.14,153.56Zm0-18.75q1.05-1.87,2.24-4.22c.79-1.56,1.53-3.17,2.24-4.83s1.31-3.31,1.83-5a23.58,23.58,0,0,0,1-4.61c0-.45,0-.84,0-1.16s-.09-.48-.22-.48a2.1,2.1,0,0,0-1.46.88,11.26,11.26,0,0,0-1.57,2.38,25.9,25.9,0,0,0-1.5,3.49,42.35,42.35,0,0,0-1.28,4.24,43.05,43.05,0,0,0-.89,4.63A33.74,33.74,0,0,0,104.16,134.81Z"/><path class="cls-3" d="M137.38,147.82c-.36.5-.84,1.08-1.44,1.76a17.77,17.77,0,0,1-2,1.92A12.47,12.47,0,0,1,131.5,153a5.72,5.72,0,0,1-2.58.64,3.55,3.55,0,0,1-2.58-1,8.23,8.23,0,0,1-1.78-2.89,11.07,11.07,0,0,1-1.38,1.33,11.33,11.33,0,0,1-1.79,1.23,11.89,11.89,0,0,1-2,.91,6.76,6.76,0,0,1-2.11.35,5.59,5.59,0,0,1-2.19-.46,5.69,5.69,0,0,1-1.89-1.31,6.58,6.58,0,0,1-1.31-2.09,7.37,7.37,0,0,1-.49-2.78,14,14,0,0,1,.49-3.61,19.86,19.86,0,0,1,1.36-3.62,20.77,20.77,0,0,1,2-3.34,16.52,16.52,0,0,1,2.59-2.74,12.83,12.83,0,0,1,3-1.86,7.79,7.79,0,0,1,3.18-.69,1.45,1.45,0,0,1,.84.21,2,2,0,0,1,.51.48c.13.18.26.35.38.53a1.19,1.19,0,0,0,.47.37,2,2,0,0,0,.58.15,3.86,3.86,0,0,0,.6,0h.52l.53,0a2.84,2.84,0,0,1,.66.08,1,1,0,0,1,.54.3,1.65,1.65,0,0,1,.36.66,4.25,4.25,0,0,1,.13,1.14,14.59,14.59,0,0,1-.24,2.5c-.15.91-.32,1.85-.51,2.81s-.36,1.92-.52,2.89a17.74,17.74,0,0,0-.23,2.73,5.66,5.66,0,0,0,.2,1.72.81.81,0,0,0,.85.62,2.39,2.39,0,0,0,1-.25,5.63,5.63,0,0,0,1.09-.64q.56-.4,1.11-.9c.36-.34.71-.69,1-1.05a34.92,34.92,0,0,0,2.32-2.86Zm-20-1.85a8.23,8.23,0,0,0,.08,1.13,3.27,3.27,0,0,0,.29,1,1.87,1.87,0,0,0,.57.7,1.41,1.41,0,0,0,.89.27,2.13,2.13,0,0,0,1.57-.75,7.46,7.46,0,0,0,1.21-1.8,12.57,12.57,0,0,0,.84-2.18,14.63,14.63,0,0,0,.41-1.88l1.43-6.89a4,4,0,0,0-1.88.48,6.9,6.9,0,0,0-1.72,1.3,11.32,11.32,0,0,0-1.49,1.88,15,15,0,0,0-1.17,2.21,13.77,13.77,0,0,0-.76,2.33A9.87,9.87,0,0,0,117.37,146Z"/><path class="cls-3" d="M135.1,148.66q0-1.54.18-3.57c.13-1.35.29-2.73.47-4.13s.4-2.74.64-4,.46-2.41.68-3.33a3.62,3.62,0,0,1,1-1.8,2.71,2.71,0,0,1,2-.73,1.91,1.91,0,0,1,1.75.77,3.82,3.82,0,0,1,.5,2.07c0,.23,0,.55-.07.95s-.11.83-.18,1.31-.15,1-.22,1.47-.16,1-.23,1.41-.12.81-.17,1.13a4.83,4.83,0,0,0-.07.64h.47l.44-.83c.21-.38.44-.83.71-1.33s.55-1,.85-1.58.59-1.08.86-1.59.5-1,.72-1.35.39-.68.49-.87a4.25,4.25,0,0,1,1.72-1.73,4.82,4.82,0,0,1,2.13-.47,2.17,2.17,0,0,1,1.86,1,4.7,4.7,0,0,1,.69,2.72,5.67,5.67,0,0,1-.1.87c-.07.41-.16.89-.27,1.45s-.23,1.18-.37,1.86-.25,1.35-.36,2.06-.2,1.4-.27,2.08a18.79,18.79,0,0,0-.1,1.9,6.72,6.72,0,0,0,.36,2.39,1.21,1.21,0,0,0,1.14.94,2,2,0,0,0,.81-.21,9.27,9.27,0,0,0,1-.55,13.35,13.35,0,0,0,1.08-.79c.36-.29.73-.6,1.09-.91.83-.74,1.69-1.56,2.6-2.49l.4,5.25-1.17.9-2,1.45a18,18,0,0,1-2.08,1.3,13.17,13.17,0,0,1-2.25.94,8.32,8.32,0,0,1-2.46.36q-1.29,0-2.16-1.86a13.18,13.18,0,0,1-.88-5.45,27.85,27.85,0,0,1,.18-3c.13-1.08.29-2.25.47-3.5h-.37l-6.14,12.19a3,3,0,0,1-1.06,1.31,2.62,2.62,0,0,1-1.36.35,2.65,2.65,0,0,1-1.54-.41,2.74,2.74,0,0,1-.91-1.1,5.32,5.32,0,0,1-.42-1.57A15.37,15.37,0,0,1,135.1,148.66Z"/><path class="cls-3" d="M176.8,148.31c-1.5.88-2.83,1.64-4,2.3s-2.22,1.2-3.13,1.64a18.22,18.22,0,0,1-2.44,1,6.62,6.62,0,0,1-1.93.33,4.89,4.89,0,0,1-3.14-1.08,8.11,8.11,0,0,1-2.28-3.1,19.7,19.7,0,0,1-1.37-4.91,42.43,42.43,0,0,1-.46-6.5q0-1.4.12-3c.08-1.06.19-2.11.33-3.16-.47-.06-.83-.12-1.09-.18l-.82-.16-1.1-.18c-.45-.06-1.09-.14-1.94-.23a2.12,2.12,0,0,1-.86-.27,1.18,1.18,0,0,1-.45-.47,1.43,1.43,0,0,1-.16-.56c0-.2,0-.36,0-.5a.78.78,0,0,1,.46-.72,4,4,0,0,1,1.17-.36,10.71,10.71,0,0,1,1.57-.13c.57,0,1.12,0,1.64,0l1.41,0a5.67,5.67,0,0,0,.86,0,52.43,52.43,0,0,1,1.6-6.13,35.32,35.32,0,0,1,2.18-5.27,14.55,14.55,0,0,1,2.64-3.71,4.26,4.26,0,0,1,3-1.39,3.27,3.27,0,0,1,1.84.56,5.08,5.08,0,0,1,1.41,1.5,7.47,7.47,0,0,1,.91,2.19,10.74,10.74,0,0,1,.31,2.62,10.14,10.14,0,0,1-.32,2.42,17.87,17.87,0,0,1-.9,2.6,25.62,25.62,0,0,1-1.32,2.69c-.51.9-1,1.8-1.6,2.69.14,0,.37,0,.7,0l1.14,0,1.39.06,1.45.06,1.32,0,1,0a.76.76,0,0,1,.68.47,2.68,2.68,0,0,1,.21,1.13,1.85,1.85,0,0,1-.47,1.33,1.35,1.35,0,0,1-1,.52h-9c-.45.63-.91,1.24-1.37,1.84s-.88,1.14-1.27,1.63c-.07,1-.12,1.92-.17,2.86,0,.4,0,.82-.05,1.25s0,.86,0,1.28,0,.83,0,1.22,0,.75,0,1.08a8.61,8.61,0,0,0,.23,2.13,4,4,0,0,0,.68,1.42,2.58,2.58,0,0,0,1.09.79,3.9,3.9,0,0,0,1.45.25,4.52,4.52,0,0,0,1.23-.23,14.68,14.68,0,0,0,1.61-.65c.59-.27,1.21-.6,1.86-1s1.28-.79,1.92-1.23,1.24-.92,1.81-1.41a16.17,16.17,0,0,0,1.57-1.51Zm-7.5-29.67c0-.17,0-.37,0-.58a2.22,2.22,0,0,0-.15-.59,1.05,1.05,0,0,0-1.06-.66q-.6,0-1.23,1.08a16,16,0,0,0-1.19,2.75q-.58,1.68-1.08,3.69c-.34,1.35-.65,2.65-.93,3.92l.7.08.73.08c.47-.8,1-1.66,1.47-2.59s1-1.84,1.37-2.74.74-1.74,1-2.52A6.37,6.37,0,0,0,169.3,118.64Z"/><path class="cls-3" d="M201.07,147.82c-.36.5-.84,1.08-1.44,1.76a17.77,17.77,0,0,1-2,1.92,12.47,12.47,0,0,1-2.41,1.54,5.72,5.72,0,0,1-2.58.64,3.55,3.55,0,0,1-2.58-1,8.23,8.23,0,0,1-1.78-2.89,11.07,11.07,0,0,1-1.38,1.33,12.19,12.19,0,0,1-3.82,2.14,6.76,6.76,0,0,1-2.11.35,5.59,5.59,0,0,1-2.19-.46,5.69,5.69,0,0,1-1.89-1.31,6.41,6.41,0,0,1-1.31-2.09,7.37,7.37,0,0,1-.49-2.78,14,14,0,0,1,.49-3.61,19.86,19.86,0,0,1,1.36-3.62A20.77,20.77,0,0,1,179,136.4a16.52,16.52,0,0,1,2.59-2.74,12.62,12.62,0,0,1,3-1.86,7.79,7.79,0,0,1,3.18-.69,1.45,1.45,0,0,1,.84.21,2.13,2.13,0,0,1,.51.48c.13.18.26.35.38.53a1.19,1.19,0,0,0,.47.37,2,2,0,0,0,.58.15,3.81,3.81,0,0,0,.59,0h.53l.53,0a2.84,2.84,0,0,1,.66.08,1,1,0,0,1,.53.3,1.55,1.55,0,0,1,.37.66,4.25,4.25,0,0,1,.13,1.14,14.59,14.59,0,0,1-.24,2.5c-.15.91-.33,1.85-.51,2.81s-.36,1.92-.52,2.89a16.58,16.58,0,0,0-.23,2.73,5.66,5.66,0,0,0,.2,1.72.81.81,0,0,0,.85.62,2.39,2.39,0,0,0,1-.25,5.63,5.63,0,0,0,1.09-.64,12.77,12.77,0,0,0,1.1-.9q.55-.51,1-1.05a34.92,34.92,0,0,0,2.32-2.86Zm-20-1.85a6.91,6.91,0,0,0,.08,1.13,3.27,3.27,0,0,0,.29,1,2,2,0,0,0,.56.7,1.45,1.45,0,0,0,.89.27,2.13,2.13,0,0,0,1.58-.75,7.46,7.46,0,0,0,1.21-1.8,13.43,13.43,0,0,0,.84-2.18,14.63,14.63,0,0,0,.41-1.88l1.43-6.89a4,4,0,0,0-1.88.48,6.9,6.9,0,0,0-1.72,1.3,11.32,11.32,0,0,0-1.49,1.88,15,15,0,0,0-1.17,2.21,13.77,13.77,0,0,0-.76,2.33A9.87,9.87,0,0,0,181.06,146Z"/><path class="cls-4" d="M148.08,74.41a28.16,28.16,0,0,1-.29-3.5,14.24,14.24,0,0,0-.49-3.52c-.65-1.72-2-2.25-2.5-3.91,0-3.59-1.45-5.9-1.37-9.53a90,90,0,0,1-6.13-6.69c-.33-1.79-1.47-3.61-2.55-5.55-.47-.84-.9-1.82-1.38-2.79-.88-1.76-2.09-3.49-.18-4.72a7.65,7.65,0,0,1,0-2c.57-.59,1.4-1.15,2-1.86s1.52-1.4,1.05-2.56c-.74-.91-1.81-.54-2.6-.65-3.72-.5-8.19-1.71-11.51-1.47-3.95.3-10.38-.33-14.89-.35-1.74,0-3.32.24-4.51.2a28.61,28.61,0,0,0-3.25-.3c-.46,0-.94.06-1.23.09-1.66.18-3.45.85-4,1.67-1.23,1.7-.41,4.33-.56,6.08-.1,1.21-.63,2.47-.74,3.61-.16,1.56,0,3.12,0,4.7a53.2,53.2,0,0,0-.34,5.89c.14,1.63.95,3.15,1.19,4.82s-.37,3.71-.26,5.08c0,.3.1.75.11,1,.08,2.21.39,3.46.54,5.16a24,24,0,0,1,.11,3.28,21.14,21.14,0,0,1-1.33,5.6c-.86,2.71-1.72,4.93-2.32,7.35-.29,1.19-.88,3.43-1,4.4,0,.28.17.47.15.63-.5,3.66-1.41,6.91-1,11,1.42,1.76,3.83,2.12,6.1,2.6s4.93.54,7.48.9a71.91,71.91,0,0,0,12,.7c1.27,0,2.49-.31,3.7-.28.72,0,1.32.34,2,.39s1.38-.29,2,0c1.67.57,2.51,2.25,4.71,2.07,1.7-.14,2.43-2.78,3.93-2.71,1.06.06,1.19,1.06,2.1,1.63a4.83,4.83,0,0,0,3.83.56,7.91,7.91,0,0,0,1.05-.31c1.07-.72,1.61-2.29,2.16-3.49a3.41,3.41,0,0,0,.54-1.38A16,16,0,0,0,143.19,92c.4-.7,1-1.36,1.42-2.12.11-.21,0-.57.08-.81s.37-.37.46-.57A7.54,7.54,0,0,1,147,85.76c1.32-1.31,3.24-3.21,3.36-5.41C150.51,78.3,148.52,76.33,148.08,74.41ZM112,46.18a2.42,2.42,0,0,1-.1.53,3.49,3.49,0,0,1-.24.65,2.22,2.22,0,0,1-1.24,1.1,3.44,3.44,0,0,1-2.1,0,2,2,0,0,1-.75-.42,1.9,1.9,0,0,1-.48-.72,2.81,2.81,0,0,1-.17-1.06,3.5,3.5,0,0,1,.15-1,2.67,2.67,0,0,1,.47-.9,2.34,2.34,0,0,1,.82-.62,3,3,0,0,1,1.21-.23,2.47,2.47,0,0,1,1.82.61,2.29,2.29,0,0,1,.62,1.74S112,46,112,46.18Z"/></g></svg>